<svg width="44" height="44" viewBox="0 0 44 44" fill="none" xmlns="http://www.w3.org/2000/svg">
    <path d="M38.333 1H5.66701C3.08901 1 1 3.08901 1 5.66701V38.333C1 40.911 3.08901 43 5.66701 43H38.333C40.911 43 43 40.911 43 38.333V5.66701C43 3.08901 40.911 1 38.333 1Z" stroke="black" stroke-width="2" stroke-linecap="round" stroke-linejoin="round"/>
    <path d="M13.833 17.333C15.766 17.333 17.333 15.766 17.333 13.833C17.333 11.9 15.766 10.333 13.833 10.333C11.9 10.333 10.333 11.9 10.333 13.833C10.333 15.766 11.9 17.333 13.833 17.333Z" stroke="black" stroke-width="2" stroke-linecap="round" stroke-linejoin="round"/>
    <path d="M43 29L31.333 17.333L5.66699 43" stroke="black" stroke-width="2" stroke-linecap="round" stroke-linejoin="round"/>
</svg>
